<svg width="56.339" height="21.422" enable-background="new 0 0 352 160" fill="currentColor" version="1.1" viewBox="0 0 56.339 21.422" xml:space="preserve" xmlns="http://www.w3.org/2000/svg" xmlns:xlink="http://www.w3.org/1999/xlink">
<g transform="matrix(.26374 0 0 .26374 -18.766 -11.236)" stroke-width="3.7916">
	<g stroke-width="3.7916">
		<defs>
			<rect id="SVGID_1_" x="31.5" y="15.978" width="289" height="130.04"/>
		</defs>
		<clipPath id="SVGID_2_">
			<use overflow="visible" xlink:href="#SVGID_1_"/>
		</clipPath>
		<g clip-path="url(#SVGID_2_)" stroke-width="3.7916">
			<defs>
				<rect id="SVGID_3_" x="31.5" y="15.978" width="289" height="130.04"/>
			</defs>
			<clipPath id="SVGID_4_">
				<use overflow="visible" xlink:href="#SVGID_3_"/>
			</clipPath><g stroke-width="3.7916">
			<path d="m105.75 102.97c-0.06 0.238-0.298 0.357-0.713 0.357h-7.936c-0.477 0-0.891-0.208-1.248-0.625l-13.107-16.672-3.655 3.477v12.929c0 0.595-0.298 0.892-0.892 0.892h-6.152c-0.595 0-0.892-0.297-0.892-0.892v-58.935c0-0.593 0.297-0.891 0.892-0.891h6.152c0.594 0 0.892 0.298 0.892 0.891v36.288l15.692-15.87c0.416-0.415 0.832-0.624 1.248-0.624h8.204c0.356 0 0.593 0.149 0.713 0.445 0.119 0.357 0.089 0.624-0.089 0.803l-16.585 16.047 17.297 21.488c0.237 0.238 0.297 0.535 0.179 0.892" clip-path="url(#SVGID_4_)"/>
			<path d="m137.9 103.32h-6.152c-0.654 0-0.981-0.296-0.981-0.891v-1.249c-2.616 1.961-5.974 2.942-10.075 2.942-3.744 0-6.985-1.159-9.719-3.476-2.675-2.377-4.012-5.409-4.012-9.094 0-5.825 3.625-9.778 10.877-11.858 2.853-0.833 7.162-1.545 12.928-2.14 0.179-2.198-0.401-4.071-1.738-5.617-1.337-1.545-3.285-2.318-5.84-2.318-3.329 0-6.717 1.19-10.164 3.566-0.535 0.298-0.922 0.238-1.159-0.178l-3.21-4.547c-0.298-0.357-0.208-0.772 0.267-1.248 4.577-3.15 9.332-4.726 14.266-4.726 3.804 0 7.044 0.892 9.719 2.675 3.923 2.616 5.884 6.806 5.884 12.571v24.697c0 0.595-0.298 0.891-0.891 0.891m-7.133-18.634c-5.826 0.595-9.807 1.368-11.947 2.318-2.913 1.248-4.222 3.031-3.924 5.35 0.178 1.308 0.833 2.363 1.962 3.165 1.128 0.802 2.437 1.264 3.923 1.382 4.16 0.297 7.49-0.803 9.986-3.299z" clip-path="url(#SVGID_4_)"/>
			<path d="m175.22 118.79c-3.24 3.357-7.832 5.038-13.775 5.038-3.448 0-6.717-0.862-9.807-2.585-0.655-0.417-1.427-0.967-2.318-1.65-0.892-0.683-1.933-1.531-3.121-2.541-0.417-0.356-0.446-0.802-0.09-1.338l4.191-4.19c0.178-0.179 0.416-0.268 0.713-0.268 0.237 0 0.446 0.089 0.624 0.268 3.328 3.328 6.568 4.993 9.718 4.993 7.191 0 10.788-3.745 10.788-11.234v-4.636c-2.794 2.318-6.508 3.477-11.145 3.477-5.766 0-10.284-2.168-13.552-6.508-2.853-3.803-4.28-8.589-4.28-14.354 0-5.468 1.367-10.104 4.102-13.909 3.209-4.576 7.757-6.865 13.642-6.865 4.458 0 8.203 1.159 11.233 3.478v-1.783c0-0.594 0.297-0.892 0.892-0.892h6.153c0.593 0 0.891 0.298 0.891 0.892v39.854c0 6.476-1.62 11.395-4.859 14.753m-3.077-42.84c-1.486-3.803-4.934-5.706-10.342-5.706-6.954 0-10.431 4.34-10.431 13.017 0 4.814 1.159 8.323 3.477 10.521 1.723 1.725 3.952 2.586 6.687 2.586 5.586 0 9.123-1.902 10.609-5.706z" clip-path="url(#SVGID_4_)"/>
			<path d="m217.14 118.79c-3.241 3.357-7.832 5.038-13.775 5.038-3.449 0-6.718-0.862-9.808-2.585-0.655-0.417-1.427-0.967-2.318-1.65-0.892-0.683-1.932-1.531-3.121-2.541-0.416-0.356-0.446-0.802-0.089-1.338l4.19-4.19c0.178-0.179 0.416-0.268 0.713-0.268 0.237 0 0.446 0.089 0.624 0.268 3.328 3.328 6.567 4.993 9.718 4.993 7.191 0 10.789-3.745 10.789-11.234v-4.636c-2.795 2.318-6.509 3.477-11.145 3.477-5.766 0-10.284-2.168-13.552-6.508-2.854-3.803-4.28-8.589-4.28-14.354 0-5.468 1.367-10.104 4.101-13.909 3.21-4.576 7.757-6.865 13.642-6.865 4.458 0 8.202 1.159 11.234 3.478v-1.783c0-0.594 0.296-0.892 0.892-0.892h6.152c0.593 0 0.891 0.298 0.891 0.892v39.854c0 6.476-1.62 11.395-4.858 14.753m-3.076-42.84c-1.487-3.803-4.935-5.706-10.343-5.706-6.955 0-10.432 4.34-10.432 13.017 0 4.814 1.16 8.323 3.477 10.521 1.724 1.725 3.953 2.586 6.687 2.586 5.586 0 9.124-1.902 10.61-5.706v-14.712z" clip-path="url(#SVGID_4_)"/>
			<path d="m235.68 103.32h-6.153c-0.594 0-0.891-0.296-0.891-0.891v-58.934c0-0.593 0.297-0.891 0.891-0.891h6.153c0.593 0 0.891 0.297 0.891 0.891v58.935c0 0.594-0.298 0.89-0.891 0.89" clip-path="url(#SVGID_4_)"/>
			<path d="m280.52 85.225c0 0.595-0.299 0.892-0.892 0.892h-28.977c0.356 2.913 1.605 5.349 3.745 7.311 2.437 2.082 5.498 3.121 9.184 3.121 3.268 0 6.209-0.921 8.826-2.764 0.536-0.357 0.981-0.357 1.338 0l4.19 4.28c0.476 0.477 0.476 0.891 0 1.248-4.279 3.21-9.244 4.814-14.889 4.814-6.063 0-11.116-2.02-15.158-6.062-3.922-3.982-5.884-9.064-5.884-15.246 0-5.825 1.931-10.758 5.795-14.801 3.567-3.685 8.203-5.527 13.909-5.527 5.408 0 9.955 1.932 13.642 5.795 3.803 3.983 5.557 8.976 5.26 14.979zm-11.68-13.106c-2.021-1.842-4.458-2.764-7.311-2.764-2.675 0-5.024 0.892-7.043 2.674-2.021 1.783-3.299 4.102-3.834 6.955h21.487c-0.06-2.733-1.159-5.023-3.299-6.865" clip-path="url(#SVGID_4_)"/>
			<polygon points="281.13 62.935 281.13 63.413 280.12 63.413 280.12 66.093 279.57 66.093 279.57 63.413 278.57 63.413 278.57 62.935" clip-path="url(#SVGID_4_)"/>
			<polygon points="284.77 62.935 284.77 66.093 284.24 66.093 284.24 63.656 284.23 63.656 283.36 66.093 282.9 66.093 282.02 63.656 282.02 66.093 281.49 66.093 281.49 62.935 282.27 62.935 283.14 65.408 283.15 65.408 284 62.935" clip-path="url(#SVGID_4_)"/>
		</g></g>
	</g>
</g>
</svg>
