<?xml version="1.0" encoding="UTF-8" standalone="no"?>
<!-- Uploaded to: SVG Repo, www.svgrepo.com, Generator: SVG Repo Mixer Tools -->

<svg
   aria-label="Kaggle"
   role="img"
   viewBox="0 0 16 16"
   version="1.1"
   id="svg1"
   sodipodi:docname="kaggle_orig.svg"
   width="16"
   height="16"
   inkscape:version="1.4 (e7c3feb1, 2024-10-09)"
   xmlns:inkscape="http://www.inkscape.org/namespaces/inkscape"
   xmlns:sodipodi="http://sodipodi.sourceforge.net/DTD/sodipodi-0.dtd"
   xmlns="http://www.w3.org/2000/svg"
   xmlns:svg="http://www.w3.org/2000/svg">
  <defs
     id="defs1" />
  <sodipodi:namedview
     id="namedview1"
     pagecolor="#ffffff"
     bordercolor="#666666"
     borderopacity="1.0"
     inkscape:showpageshadow="2"
     inkscape:pageopacity="0.0"
     inkscape:pagecheckerboard="0"
     inkscape:deskcolor="#d1d1d1"
     inkscape:zoom="11.979567"
     inkscape:cx="7.5545302"
     inkscape:cy="10.726598"
     inkscape:window-width="1152"
     inkscape:window-height="467"
     inkscape:window-x="45"
     inkscape:window-y="37"
     inkscape:window-maximized="0"
     inkscape:current-layer="svg1" />
  <path
     fill="#20beff"
     d="m 12.624625,15.892547 c -0.01591,0.07959 -0.07959,0.106127 -0.212254,0.106127 h -2.122544 c -0.132658,0 -0.238786,-0.05306 -0.3449132,-0.159191 L 6.4549209,11.38957 5.4851838,12.312081 v 3.449134 C 5.4851838,15.920406 5.4055878,16 5.2463976,16 H 3.6141615 C 3.4549707,16 3.3753753,15.92041 3.3753753,15.761215 V 0.2387864 C 3.3753753,0.0795956 3.4549713,2e-7 3.6141615,2e-7 h 1.6184396 c 0.1591908,0 0.2387862,0.079596 0.2387862,0.2387862 V 9.7902338 L 9.6347568,5.5796371 c 0.110372,-0.1101068 0.220745,-0.1655584 0.331117,-0.1655584 h 2.1766682 c 0.09446,0 0.157334,0.039532 0.189172,0.1180659 0.03157,0.1061272 0.02654,0.1591908 -0.02653,0.2122544 l -4.4562824,4.311153 c 4.7757234,5.571677 4.7757234,5.836995 4.7757234,5.836995"
     id="path1"
     style="fill:#000000;fill-opacity:1;stroke-width:176" />
</svg>
