<svg aria-hidden="true"
     xmlns="http://www.w3.org/2000/svg"
     role="img"
     width="16"
     height="16"
     fill="currentColor"
     class="bi bi-kaggle"
     viewBox="0 0 16 16">
 <path d="m12.625 15.893c-0.01591 0.07959-0.07959 0.10613-0.21225 0.10613h-2.1225c-0.13266 0-0.23879-0.05306-0.34491-0.15919l-3.49-4.4499-0.96974 0.92251v3.4491c0 0.15919-0.079596 0.23878-0.23879 0.23878h-1.6322c-0.15919 0-0.23879-0.07959-0.23879-0.23878v-15.522c0-0.15919 0.079596-0.23879 0.23879-0.23879h1.6184c0.15919 0 0.23879 0.079596 0.23879 0.23879v9.5514l4.1634-4.2106c0.11037-0.11011 0.22074-0.16556 0.33112-0.16556h2.1767c0.09446 0 0.15733 0.039532 0.18917 0.11807 0.03157 0.10613 0.02654 0.15919-0.02653 0.21225l-4.4563 4.3112c4.7757 5.5717 4.7757 5.837 4.7757 5.837" stroke-width="176"/>
</svg>
